/* XPM */
static char * start_xpm[] = {
"22 22 415 2",
"  	c #FFFFFF",
". 	c #FDFEFF",
"+ 	c #FFFFFD",
"@ 	c #FFFEF8",
"# 	c #FFFEF1",
"$ 	c #FFFEEC",
"% 	c #FFFDEA",
"& 	c #FFFDE6",
"* 	c #FFFBE5",
"= 	c #FFFEEA",
"- 	c #FFFDF3",
"; 	c #FFFDF6",
"> 	c #FFFEFB",
", 	c #FDFEF9",
"' 	c #F9FEF8",
") 	c #FBFFFB",
"! 	c #FFFDFE",
"~ 	c #FFFAEE",
"{ 	c #FFFAE6",
"] 	c #FFF3D7",
"^ 	c #FFE5C3",
"/ 	c #FDDBB5",
"( 	c #EECBA3",
"_ 	c #F9D6AE",
": 	c #F8D8B2",
"< 	c #FFE4C7",
"[ 	c #FFF2DB",
"} 	c #FFF7E4",
"| 	c #FFFDED",
"1 	c #FFFFF3",
"2 	c #FBFFF9",
"3 	c #FFFCF9",
"4 	c #FFFDF4",
"5 	c #FFF9E7",
"6 	c #FFF3D8",
"7 	c #F9D7B1",
"8 	c #ECC091",
"9 	c #EBB881",
"0 	c #E3A86E",
"a 	c #E8AA6D",
"b 	c #EBAB6B",
"c 	c #F0B476",
"d 	c #E8AF7A",
"e 	c #E9B689",
"f 	c #FFD7B1",
"g 	c #FFF3D3",
"h 	c #FFFAE3",
"i 	c #FFFDEE",
"j 	c #F9FFFD",
"k 	c #FFFDFF",
"l 	c #FFF8E6",
"m 	c #FFEACC",
"n 	c #E9C69E",
"o 	c #EABC8A",
"p 	c #F0B87B",
"q 	c #F2B16D",
"r 	c #FFB971",
"s 	c #FCAE63",
"t 	c #F6A758",
"u 	c #F0A257",
"v 	c #F3AA66",
"w 	c #EEAC70",
"x 	c #E3AA75",
"y 	c #EFC396",
"z 	c #FFEBC6",
"A 	c #FFFEE4",
"B 	c #FEFFF4",
"C 	c #F6FFFC",
"D 	c #FFFCFC",
"E 	c #FFFAEB",
"F 	c #FFEAD0",
"G 	c #F1D1AB",
"H 	c #F6CC9A",
"I 	c #F7C387",
"J 	c #FFC27F",
"K 	c #FFC078",
"L 	c #F8AA5F",
"M 	c #FEAB5B",
"N 	c #FFB05A",
"O 	c #FFAF5C",
"P 	c #FAAC62",
"Q 	c #FAB16D",
"R 	c #F5B172",
"S 	c #E3A870",
"T 	c #E7BC89",
"U 	c #FFEAC3",
"V 	c #FFFFE8",
"W 	c #FFFFF6",
"X 	c #FBFBFB",
"Y 	c #FFFDFA",
"Z 	c #FFFBEF",
"` 	c #FFF1DD",
" .	c #E5CAAC",
"..	c #EFCCA2",
"+.	c #F1C68F",
"@.	c #FFCE8F",
"#.	c #FFC781",
"$.	c #FAB66D",
"%.	c #FFB96E",
"&.	c #FFB769",
"*.	c #FFB762",
"=.	c #F8AA58",
"-.	c #F7AD64",
";.	c #FBB570",
">.	c #F7B16C",
",.	c #F4B06F",
"'.	c #EFB576",
").	c #DEB581",
"!.	c #FFF1D0",
"~.	c #FFFFED",
"{.	c #FEFDF9",
"].	c #FFFCF8",
"^.	c #FFF5E8",
"/.	c #F6E2CA",
"(.	c #FFE8C5",
"_.	c #F9D8AB",
":.	c #F7D099",
"<.	c #F1C387",
"[.	c #F8C282",
"}.	c #FFC784",
"|.	c #FABA7A",
"1.	c #FAB975",
"2.	c #F2B066",
"3.	c #FEBE76",
"4.	c #FCBF80",
"5.	c #F5B77A",
"6.	c #FFBA77",
"7.	c #FFBB73",
"8.	c #F8B46B",
"9.	c #E9B271",
"0.	c #F3D1A3",
"a.	c #FFFAE0",
"b.	c #FFFBF6",
"c.	c #FFF0DB",
"d.	c #EED5B7",
"e.	c #FFE4C2",
"f.	c #FFDFB5",
"g.	c #F8CF97",
"h.	c #F0C284",
"i.	c #F3BF83",
"j.	c #FCC688",
"k.	c #FFC98D",
"l.	c #F8C284",
"m.	c #F6C384",
"n.	c #F1BE7F",
"o.	c #F5C187",
"p.	c #FFC88D",
"q.	c #FFBD75",
"r.	c #FFB469",
"s.	c #F5B26C",
"t.	c #E0B179",
"u.	c #FFEFCA",
"v.	c #FFFEF3",
"w.	c #FFFAF3",
"x.	c #F5D8BA",
"y.	c #FFDCB6",
"z.	c #FFDFC2",
"A.	c #FFD8B4",
"B.	c #F9CC91",
"C.	c #F2C17E",
"D.	c #F9BE82",
"E.	c #FFC68C",
"F.	c #FCCA8F",
"G.	c #F2C58C",
"H.	c #F0C895",
"I.	c #F7CF9C",
"J.	c #FFD29A",
"K.	c #FFD091",
"L.	c #FFCC8B",
"M.	c #FFC782",
"N.	c #FFB975",
"O.	c #F9AE6B",
"P.	c #EAB070",
"Q.	c #FAD5A8",
"R.	c #FFFDF1",
"S.	c #FFF6EE",
"T.	c #EECCA6",
"U.	c #FFD4A5",
"V.	c #FFDAB6",
"W.	c #FFCDA5",
"X.	c #F4BF79",
"Y.	c #FABF83",
"Z.	c #FDC48D",
"`.	c #FCCB91",
" +	c #F8CF99",
".+	c #F3D0A6",
"++	c #FBD6AC",
"@+	c #FFD7A4",
"#+	c #FFD399",
"$+	c #FFD193",
"%+	c #FFCB8E",
"&+	c #FFBD82",
"*+	c #FCB273",
"=+	c #F0AD67",
"-+	c #F3C591",
";+	c #FFFBEE",
">+	c #FFF6E8",
",+	c #E4C295",
"'+	c #FAC98F",
")+	c #FFCB98",
"!+	c #FFBF87",
"~+	c #F6BA74",
"{+	c #F8BF78",
"]+	c #F7C389",
"^+	c #F8C590",
"/+	c #FECB94",
"(+	c #FFD4A3",
"_+	c #FFD6B0",
":+	c #FFD8B5",
"<+	c #FFD8AE",
"[+	c #FFD19F",
"}+	c #FECC97",
"|+	c #FDC18B",
"1+	c #FBB67B",
"2+	c #F5AD63",
"3+	c #ECB479",
"4+	c #FFFAE9",
"5+	c #E4BE91",
"6+	c #F2BC7E",
"7+	c #FEBA7B",
"8+	c #F8B86E",
"9+	c #FBC27B",
"0+	c #F9C68D",
"a+	c #F6C695",
"b+	c #FECA98",
"c+	c #FFD5A4",
"d+	c #FFD8AF",
"e+	c #FFD9B2",
"f+	c #FFD7AD",
"g+	c #FED2A3",
"h+	c #FACE9D",
"i+	c #FACB97",
"j+	c #F8C189",
"k+	c #F7B676",
"l+	c #F8AA60",
"m+	c #EBAF73",
"n+	c #FFFBE8",
"o+	c #EFC499",
"p+	c #E7AF72",
"q+	c #F2B26A",
"r+	c #F8B668",
"s+	c #FBBD70",
"t+	c #FDC47F",
"u+	c #FAC58F",
"v+	c #FAC798",
"w+	c #FFCE9D",
"x+	c #FFD5A5",
"y+	c #FFDAAB",
"z+	c #FFDAAA",
"A+	c #FFD6A5",
"B+	c #FDD29F",
"C+	c #FACD96",
"D+	c #F9C78C",
"E+	c #F8BD79",
"F+	c #F6B269",
"G+	c #EFA159",
"H+	c #F3B680",
"I+	c #FFFCED",
"J+	c #FFFCEA",
"K+	c #FBD5AE",
"L+	c #E2AE74",
"M+	c #F2B268",
"N+	c #FCB968",
"O+	c #FFC073",
"P+	c #FDC27E",
"Q+	c #F8C48B",
"R+	c #FBC996",
"S+	c #FFD09F",
"T+	c #FFD4A4",
"U+	c #FFD8A9",
"V+	c #FFD8A8",
"W+	c #FFD4A2",
"X+	c #FFD09A",
"Y+	c #FDCB90",
"Z+	c #FCC37E",
"`+	c #F9B665",
" @	c #F3AB59",
".@	c #E49956",
"+@	c #FFC99D",
"@@	c #FFFDEC",
"#@	c #FFECCE",
"$@	c #E6BA89",
"%@	c #F5B56E",
"&@	c #FFB768",
"*@	c #FFBB70",
"=@	c #FEBF7A",
"-@	c #F8C584",
";@	c #FBCA90",
">@	c #FFCD98",
",@	c #FFCFA0",
"'@	c #FED1A7",
")@	c #FFCF9E",
"!@	c #FFCA92",
"~@	c #FFC486",
"{@	c #FDBA6C",
"]@	c #FBAB4A",
"^@	c #EFA044",
"/@	c #DEA065",
"(@	c #FFE6C5",
"_@	c #FFFCF0",
":@	c #FFFCE8",
"<@	c #ECC8A4",
"[@	c #F2B677",
"}@	c #FCB468",
"|@	c #FEB66E",
"1@	c #FFBE7A",
"2@	c #FCC785",
"3@	c #FACA8C",
"4@	c #FCC992",
"5@	c #FDC999",
"6@	c #FBCCA0",
"7@	c #FCCC9E",
"8@	c #FFC893",
"9@	c #FFC489",
"0@	c #FFBE7C",
"a@	c #FBB263",
"b@	c #F5A23C",
"c@	c #E3983D",
"d@	c #E0AD7E",
"e@	c #FFFAE4",
"f@	c #FEFCEF",
"g@	c #FFF8F7",
"h@	c #FFECDA",
"i@	c #E6B57D",
"j@	c #EFB168",
"k@	c #FFBC7B",
"l@	c #F4BC7F",
"m@	c #F4C287",
"n@	c #F8C78F",
"o@	c #F9C593",
"p@	c #FFC387",
"q@	c #FFBB78",
"r@	c #FFBB76",
"s@	c #EEA759",
"t@	c #E19738",
"u@	c #E1A252",
"v@	c #FFEDCA",
"w@	c #FFF8EC",
"x@	c #FFFFFB",
"y@	c #FFFCFF",
"z@	c #FFF8F4",
"A@	c #FFDDB7",
"B@	c #ECBB81",
"C@	c #EAAC71",
"D@	c #FDBB7E",
"E@	c #FFC281",
"F@	c #F9BF7F",
"G@	c #FDC789",
"H@	c #FEC389",
"I@	c #FDBD7F",
"J@	c #FCB670",
"K@	c #F3B06C",
"L@	c #D99D57",
"M@	c #E0A85B",
"N@	c #FCD395",
"O@	c #FFF7DE",
"P@	c #FFFDF7",
"Q@	c #FFFFF8",
"R@	c #FCFFFF",
"S@	c #FEFDFF",
"T@	c #FFFDEF",
"U@	c #F7DCBE",
"V@	c #EAB68E",
"W@	c #EBAA70",
"X@	c #F3AE61",
"Y@	c #FEB765",
"Z@	c #FFBD77",
"`@	c #FDBE7B",
" #	c #F6B571",
".#	c #F7B46D",
"+#	c #F6AE64",
"@#	c #EDAA63",
"##	c #E1AA6A",
"$#	c #DDB47C",
"%#	c #F2D8A7",
"&#	c #FFFFDA",
"*#	c #FFFEEF",
"=#	c #FFFFFA",
"-#	c #FAFEFF",
";#	c #F9FBFA",
">#	c #FFD1A5",
",#	c #F0B676",
"'#	c #EFB069",
")#	c #EDB276",
"!#	c #EAAF75",
"~#	c #EBAF71",
"{#	c #E7AA6B",
"]#	c #E4A464",
"^#	c #E3AB6E",
"/#	c #F3CB9A",
"(#	c #FFF1CD",
"_#	c #FFFFF1",
":#	c #F9FFFF",
"<#	c #FEFFFA",
"[#	c #FFFCF1",
"}#	c #FFF6E4",
"|#	c #FFEFD4",
"1#	c #FFE3C1",
"2#	c #F2D1B0",
"3#	c #E8C4A0",
"4#	c #EBBD99",
"5#	c #F7C7A1",
"6#	c #FFDDB4",
"7#	c #FFF9E1",
"8#	c #FEFFFD",
"9#	c #F6FCFC",
"0#	c #FDFFF7",
"a#	c #FBFFFA",
"b#	c #FFF7EA",
"c#	c #FFFBEC",
"d#	c #FFF9E8",
"e#	c #FFF9E4",
"f#	c #FFF6E3",
"g#	c #FFFBEB",
"h#	c #FCFEFD",
"        . + @ # $ % & * = - ; > , ' )       ",
"      ! @ ~ { ] ^ / ( _ : < [ } | 1 2       ",
"    3 4 5 6 7 8 9 0 a b c d e f g h i j     ",
"k > 4 l m n o p q r s t u v w x y z A B C   ",
"D ; E F G H I J K L M N O P Q R S T U V W X ",
"Y Z `  ...+.@.#.$.%.&.*.=.-.;.>.,.'.).!.~.{.",
"].^./.(._.:.<.[.}.|.1.2.3.4.5.6.7.8.9.0.a.W ",
"b.c.d.e.f.g.h.i.j.k.l.m.n.o.p.}.q.r.s.t.u.v.",
"w.x.y.z.A.B.C.D.E.F.G.H.I.J.K.L.M.N.O.P.Q.R.",
"S.T.U.V.W.m.X.Y.Z.`. +.+++@+#+$+%+&+*+=+-+;+",
">+,+'+)+!+~+{+]+^+/+(+_+:+<+(+[+}+|+1+2+3+l ",
"4+5+6+7+;.8+9+0+a+b+c+d+e+f+g+h+i+j+k+l+m+{ ",
"n+o+p+q+r+s+t+u+v+w+x+y+z+A+B+C+D+E+F+G+H+I+",
"J+K+L+M+N+O+P+Q+R+S+T+U+V+W+X+Y+Z+`+ @.@+@;+",
"@@#@$@%@&@*@=@-@;@>@,@'@'@)@!@~@{@]@^@/@(@;+",
"_@:@<@[@}@|@1@2@3@4@5@6@7@8@9@0@a@b@c@d@e@f@",
"@ g@h@i@j@;.k@l@m@'+n@o@>@p@q@r@s@t@u@v@w@W ",
"x@y@z@A@B@C@D@E@F@[.G@H@I@;.J@K@L@M@N@O@P@Q@",
"  R@S@T@U@V@W@X@Y@Z@`@ #.#+#@###$#%#&#*#=#x@",
"    -#;#R.] >#,#'#)#!#~#{#]#^#/#(#V _#W     ",
"      :#<#[#}#|#1#2#3#4#5#6#(#7## 8#9#      ",
"      0#a#<#Q@4 w@b#c#d#e#f#g#4 h#R@        "};
