/* XPM */
static char * start_i386_xpm[] = {
"22 22 306 2",
"  	c #FFFFFF",
". 	c #FEFFFF",
"+ 	c #FEFFFE",
"@ 	c #FFFEFF",
"# 	c #FFFEFC",
"$ 	c #FEFDFE",
"% 	c #F9FBFD",
"& 	c #F5FAFD",
"* 	c #F1F9FE",
"= 	c #F2F9FC",
"- 	c #F8FBFE",
"; 	c #FDFEFF",
"> 	c #FFFFFE",
", 	c #FEFEFF",
"' 	c #FFFFFD",
") 	c #F7FAFE",
"! 	c #E2F1FC",
"~ 	c #CDEAFA",
"{ 	c #B9E0F5",
"] 	c #B6E0F6",
"^ 	c #B9E0F7",
"/ 	c #B7E0F6",
"( 	c #C5E6F8",
"_ 	c #D3ECFA",
": 	c #F0F8FD",
"< 	c #FFFEF9",
"[ 	c #FFFEFE",
"} 	c #FEFEFE",
"| 	c #FDFFFE",
"1 	c #FDFDFE",
"2 	c #E2F4FD",
"3 	c #C0E3F7",
"4 	c #AFDDF4",
"5 	c #ADDCF7",
"6 	c #AFDDF6",
"7 	c #B0DDF7",
"8 	c #B1DEF6",
"9 	c #B3DEFA",
"0 	c #B1DDF7",
"a 	c #B5DFF7",
"b 	c #B8DFF4",
"c 	c #D6EFFE",
"d 	c #FEFFFD",
"e 	c #FBFEFE",
"f 	c #FEFEFD",
"g 	c #FCFDFF",
"h 	c #DBEEFA",
"i 	c #BDE1F6",
"j 	c #BBE2F6",
"k 	c #B8E0F8",
"l 	c #B5DEF5",
"m 	c #B4DFF6",
"n 	c #B4DFF7",
"o 	c #B7DFF6",
"p 	c #B6DFF7",
"q 	c #B9E0F6",
"r 	c #B2DEF7",
"s 	c #CFE8F7",
"t 	c #F4FAFE",
"u 	c #FDFEFE",
"v 	c #FCFEFE",
"w 	c #DDF0FB",
"x 	c #C0E4F8",
"y 	c #C2E3F8",
"z 	c #C4E5FA",
"A 	c #BBE1F8",
"B 	c #BCE2F9",
"C 	c #B8E2F8",
"D 	c #B7E0F4",
"E 	c #BCE4F8",
"F 	c #C2E2F8",
"G 	c #C2E5F8",
"H 	c #BFE2F7",
"I 	c #B8E1F8",
"J 	c #B3DEF5",
"K 	c #CAE8F8",
"L 	c #F5FBFE",
"M 	c #ECF6FD",
"N 	c #CAE7F7",
"O 	c #CAE7FA",
"P 	c #CBE7F7",
"Q 	c #C8E8F9",
"R 	c #C1E4F6",
"S 	c #BEE2F7",
"T 	c #BBE3F9",
"U 	c #BEE2F8",
"V 	c #BFE3F8",
"W 	c #C4E4F8",
"X 	c #C9E9FB",
"Y 	c #D0E9FA",
"Z 	c #CBE7F8",
"` 	c #C3E4F7",
" .	c #B2DDF6",
"..	c #DCF0FB",
"+.	c #FCFEFF",
"@.	c #DAEDF9",
"#.	c #D3E9FA",
"$.	c #D2EAFA",
"%.	c #D1EBF8",
"&.	c #CDE6FB",
"*.	c #C9E7FA",
"=.	c #C6E5F8",
"-.	c #C4E5F8",
";.	c #C5E5FA",
">.	c #CEE9F7",
",.	c #D8EBF9",
"'.	c #D5EDFB",
").	c #D3EAF9",
"!.	c #CAE8FB",
"~.	c #C0E2F7",
"{.	c #B5DFF8",
"].	c #B6E0F5",
"^.	c #EDF8FD",
"/.	c #D6ECFA",
"(.	c #D5ECF9",
"_.	c #CEE8FA",
":.	c #CAE7F9",
"<.	c #CEE8F9",
"[.	c #CFE9F9",
"}.	c #CBE7F9",
"|.	c #D1EAF9",
"1.	c #D9EDFB",
"2.	c #DCEFFA",
"3.	c #D8EDFB",
"4.	c #CFE9F8",
"5.	c #C5E4F9",
"6.	c #BBE0F7",
"7.	c #A8DBF4",
"8.	c #DDEFFC",
"9.	c #E4F2FA",
"0.	c #E4F2FB",
"a.	c #D8EDF9",
"b.	c #C7E6FA",
"c.	c #CBE8F9",
"d.	c #D0EAF9",
"e.	c #D1EAFA",
"f.	c #D9EEFA",
"g.	c #DFF0FB",
"h.	c #DEEFFA",
"i.	c #DAEDFB",
"j.	c #D2EAF8",
"k.	c #BFE1F7",
"l.	c #A9DBF6",
"m.	c #C5E6F9",
"n.	c #FCFDFE",
"o.	c #E1F2FA",
"p.	c #EFF5FB",
"q.	c #EBF4FC",
"r.	c #DEF1FE",
"s.	c #C7E6F9",
"t.	c #CAE7F8",
"u.	c #CEE9F9",
"v.	c #D3EAFA",
"w.	c #D3EAF8",
"x.	c #DEF0FA",
"y.	c #E3F1FB",
"z.	c #E3F1FA",
"A.	c #DBEDFB",
"B.	c #CCE7F9",
"C.	c #C1E3F7",
"D.	c #ABDAF5",
"E.	c #D5ECFB",
"F.	c #F2FBFC",
"G.	c #EDF6FC",
"H.	c #DDEFF9",
"I.	c #C8E6F7",
"J.	c #C8E7F8",
"K.	c #CDE7F8",
"L.	c #DDEFFB",
"M.	c #E1F2FB",
"N.	c #E5F2FB",
"O.	c #D9EEFB",
"P.	c #D1EBF9",
"Q.	c #A2D8F4",
"R.	c #A9DCF7",
"S.	c #E5F2FA",
"T.	c #E7F2FB",
"U.	c #D8EEFA",
"V.	c #C7E5F9",
"W.	c #C8E7F9",
"X.	c #CFE9FA",
"Y.	c #D5ECFA",
"Z.	c #DEEFFB",
"`.	c #E4F1FB",
" +	c #E6F3FC",
".+	c #E3F3FB",
"++	c #D8EDFA",
"@+	c #D0EBF9",
"#+	c #C8E6F8",
"$+	c #B7E0F9",
"%+	c #9BD7F4",
"&+	c #A7DAF5",
"*+	c #D0EAF8",
"=+	c #D1EBFA",
"-+	c #E3F3FD",
";+	c #CDE8F8",
">+	c #C3E5F9",
",+	c #CBE8FA",
"'+	c #CCE8F9",
")+	c #D7EBFA",
"!+	c #E3F2FB",
"~+	c #E5F3FB",
"{+	c #E2F1FB",
"]+	c #D7ECFA",
"^+	c #C4E4F6",
"/+	c #ADDDF9",
"(+	c #94D4F2",
"_+	c #A5DAF6",
":+	c #F7FBFE",
"<+	c #DAEFFB",
"[+	c #BBE0F4",
"}+	c #D4EBF9",
"|+	c #C3E3F6",
"1+	c #C3E3F8",
"2+	c #C7E6F8",
"3+	c #D7EBF9",
"4+	c #DDEFFA",
"5+	c #DFF0FA",
"6+	c #E0F1FC",
"7+	c #DBEEFB",
"8+	c #CEE9F8",
"9+	c #C1E3F8",
"0+	c #A1D8F6",
"a+	c #8ED1F4",
"b+	c #FCFDFD",
"c+	c #EBF5FD",
"d+	c #BBE1F7",
"e+	c #B9E0F8",
"f+	c #C2E4F7",
"g+	c #D5EBF9",
"h+	c #D9EDFA",
"i+	c #DCEEFC",
"j+	c #D5EBFA",
"k+	c #BAE0F6",
"l+	c #9AD7F6",
"m+	c #94D3F5",
"n+	c #FAFCFE",
"o+	c #CDE7F7",
"p+	c #B0DEF9",
"q+	c #B8E1F6",
"r+	c #BFE3F7",
"s+	c #C6E5F9",
"t+	c #D4EAF8",
"u+	c #D6ECF8",
"v+	c #D3EBF9",
"w+	c #D0EAFB",
"x+	c #C8E4F6",
"y+	c #B5DFF6",
"z+	c #9ED7F3",
"A+	c #ADDCF3",
"B+	c #F0F7FC",
"C+	c #BFE2F6",
"D+	c #B9E2F6",
"E+	c #BEE3F7",
"F+	c #C2E3F9",
"G+	c #C6E6F8",
"H+	c #CFEAF9",
"I+	c #D1E9F8",
"J+	c #D2EAF9",
"K+	c #ADDBF5",
"L+	c #A7D9F6",
"M+	c #E1F0FD",
"N+	c #FDFEFD",
"O+	c #E0F3FC",
"P+	c #B8DFF9",
"Q+	c #BCE2F7",
"R+	c #C4E6F9",
"S+	c #CCE7F8",
"T+	c #B7E0F7",
"U+	c #AFDDF5",
"V+	c #ADDCF6",
"W+	c #D2ECFB",
"X+	c #FDFDFC",
"Y+	c #DFEFFB",
"Z+	c #BCE2F5",
"`+	c #C0E3F8",
" @	c #C3E4F8",
".@	c #C6E6F9",
"+@	c #C8E6F9",
"@@	c #C1E5F7",
"#@	c #AEDBF6",
"$@	c #ACDEF8",
"%@	c #D2EBF8",
"&@	c #FAFCFD",
"*@	c #FFFDFC",
"=@	c #E8F5FD",
"-@	c #C0E3F9",
";@	c #B3E0F7",
">@	c #B9E2F7",
",@	c #B9E1F7",
"'@	c #BDE2F8",
")@	c #BEE3F6",
"!@	c #B8DFF8",
"~@	c #B8E0F6",
"{@	c #E2F0FB",
"]@	c #FEFDFD",
"^@	c #FFFFFC",
"/@	c #F8FBFD",
"(@	c #E2F0F9",
"_@	c #C4E6F7",
":@	c #E4F1FE",
"<@	c #FDFFFD",
"[@	c #F6FCFE",
"}@	c #F6FBFC",
"|@	c #F8FCFE",
"1@	c #FBFBFD",
"    .   + @ + # $ % & * = - ; > +   .   ,   ",
"    > , @ ' ) ! ~ { ] ^ / ( _ : < + [ } > } ",
". [   | 1 2 3 4 5 6 7 8 9 0 a b c - d @ e @ ",
"  f > g h i j k l m n o p q j ] r s t [ } u ",
"} v , w x y z A A B C D E F G H I J K L [ } ",
"+ [ M N O P Q R S T U V W X Y Z ` k  ...' ' ",
"  +.@.#.$.%.&.*.=.-.` ;.>.,.'.).!.~.{.].  $ ",
"[ ^.Y /.(._.:.<.[.}.}.|.1.2.h 3.4.5.6.7.8.  ",
"@ 9.0.w a.b.c.4.d.4.e.f.g.g.h.i.j.*.k.l.m.  ",
"n.o.p.q.r.s.t.u.v.w.f.x.y.z.g.A.).B.C.l.D.% ",
"n.E.F.G.H.I.J.K.|.(.L.M.N.0.g.O.P.}.i Q.R.& ",
"n.e.S.T.U.V.W.B.X.Y.Z.`. +.+x.++@+#+$+%+&+& ",
"n.*+=+-+;+>+,+'+d.)+Z.!+~+{+Z.]+[.^+/+(+_+:+",
"u <+[+}+|+1+2+B.*+3+4+5+6+5+7+Y.8+9+0+a+~.b+",
"> c+I d+e+f+s.c.4.g+h+A.i+A.]+j+;+k+l+m+f.f ",
"} n+o+p+q+r+s+t.;+d.t+w.g+u+v+w+x+y+z+A+g > ",
". + B+C+D+E+F+G+Z u.[.H+I+J+'+;.d+K+L+M+N+, ",
"+ [ 1 O+P+Q+i R+J.S+S+[.[.K.W T+U+V+W+X+} $ ",
"  u + } Y+Z+n k+`+ @.@t.+@@@T+#@$@%@&@. } f ",
", *@d + 1 =@-@/ ;@>@,@'@)@!@V+~@{@g # + ]@. ",
". . N+' ; ^@/@(@X.1+3 H _@j.:@> ' $ , . [ } ",
"} + } [ @ <@. } n.[@}@|@1@> ' +   [ , d @ } "};
